<svg width="64" height="66" viewBox="0 0 64 66" fill="none" xmlns="http://www.w3.org/2000/svg">
<path d="M28.0162 10.3949L54.2008 36.5795C55.4108 37.7895 55.4108 39.7739 54.2008 41.0081C52.9908 42.2181 51.0306 42.2423 49.7964 41.0323L49.7722 41.0081C48.5622 39.8223 46.6262 39.8465 45.4162 41.0323L30.5089 55.9396C29.2988 57.1496 27.3386 57.1496 26.1286 55.9396C24.9186 54.7296 24.9186 52.7694 26.1286 51.5593L41.1085 36.5795C42.2701 35.4179 42.2701 33.506 41.1085 32.3444L40.9633 32.1992C39.8017 31.0376 37.8899 31.0376 36.7283 32.1992L15.0692 53.8584C13.8591 55.0684 11.8989 55.0684 10.6889 53.8584C10.0839 53.2534 9.79352 52.4548 9.79352 51.6804C9.79352 50.8817 10.0839 50.1073 10.6889 49.5023L32.2997 27.8916C32.9047 27.2866 33.1951 26.488 33.1951 25.7136C33.1951 24.915 32.9047 24.1406 32.2997 23.5356C31.0897 22.3256 29.1294 22.3256 27.9194 23.5356L17.465 33.99C16.255 35.2 14.2947 35.2 13.0847 33.99C12.4797 33.385 12.1893 32.5864 12.1893 31.812C12.1893 31.0134 12.5039 30.239 13.0847 29.634L23.6118 19.1069C24.7734 17.9453 24.7734 16.0335 23.6118 14.8719L23.5634 14.8235C22.9584 14.2185 22.6438 13.4199 22.6438 12.6213C22.6438 11.8227 22.9584 11.0241 23.5634 10.4191C24.8218 9.18488 26.8062 9.18488 28.0162 10.3949Z" fill="#FEFEFE"/>
<path d="M55.966 8.65284C62.379 15.0659 63.1292 24.988 58.2166 32.2238C57.2002 33.7242 55.0706 33.942 53.7638 32.6594L31.9594 10.8551C30.6768 9.57245 30.8704 7.44284 32.395 6.40223C39.6309 1.4896 49.5529 2.2398 55.966 8.65284Z" fill="#FEFEFE"/>
<path d="M61.5979 7.34692C62.7981 6.14669 62.7981 4.20073 61.5979 3.00049C60.3977 1.80026 58.4517 1.80026 57.2515 3.00049C56.0512 4.20073 56.0512 6.14669 57.2515 7.34692C58.4517 8.54716 60.3977 8.54716 61.5979 7.34692Z" fill="#FEFEFE"/>
<rect x="2.86945" y="40.1593" width="7.33686" height="6.13145" rx="1.34417" transform="rotate(-45 2.86945 40.1593)" fill="#FEFEFE"/>
<rect x="0.843628" y="59.3984" width="7.33686" height="6.13145" rx="1.34417" transform="rotate(-45 0.843628 59.3984)" fill="#FEFEFE"/>
<rect x="16.0319" y="61.4237" width="7.33686" height="6.13145" rx="1.34417" transform="rotate(-45 16.0319 61.4237)" fill="#FEFEFE"/>
</svg>
