<svg width="144" height="144" viewBox="0 0 144 144" fill="none" xmlns="http://www.w3.org/2000/svg">
<g filter="url(#filter0_d_6_772)">
<rect x="9.3999" y="9.1969" width="99.0053" height="99.0053" rx="22.1985" fill="white" fill-opacity="0.9"/>
</g>
<g opacity="0.6" filter="url(#filter1_f_6_772)">
<path d="M49.3301 95.8432C51.9132 95.8432 54.3905 94.8171 56.2171 92.9906C58.0436 91.1641 59.0697 88.6868 59.0697 86.1037V76.3641H49.3301C46.7471 76.3641 44.2698 77.3902 42.4432 79.2168C40.6167 81.0433 39.5906 83.5206 39.5906 86.1037C39.5906 88.6868 40.6167 91.1641 42.4432 92.9906C44.2698 94.8171 46.7471 95.8432 49.3301 95.8432Z" fill="#0ACF83"/>
<path d="M39.5906 66.6247C39.5906 64.0416 40.6167 61.5643 42.4432 59.7378C44.2698 57.9113 46.7471 56.8851 49.3301 56.8851H59.0697V76.3643H49.3301C46.7471 76.3643 44.2698 75.3381 42.4432 73.5116C40.6167 71.6851 39.5906 69.2078 39.5906 66.6247V66.6247Z" fill="#A259FF"/>
<path d="M39.5907 47.145C39.5907 44.5619 40.6168 42.0846 42.4434 40.258C44.2699 38.4315 46.7472 37.4054 49.3303 37.4054H59.0698V56.8845H49.3303C46.7472 56.8845 44.2699 55.8584 42.4434 54.0319C40.6168 52.2054 39.5907 49.7281 39.5907 47.145V47.145Z" fill="#F24E1E"/>
<path d="M59.0696 37.4056H68.8091C71.3922 37.4056 73.8695 38.4318 75.6961 40.2583C77.5226 42.0848 78.5487 44.5621 78.5487 47.1452C78.5487 49.7283 77.5226 52.2056 75.6961 54.0321C73.8695 55.8586 71.3922 56.8848 68.8091 56.8848H59.0696V37.4056Z" fill="#FF7262"/>
<path d="M78.5487 66.6247C78.5487 68.551 77.9775 70.434 76.9073 72.0357C75.8371 73.6374 74.316 74.8857 72.5363 75.6229C70.7566 76.3601 68.7983 76.5529 66.9091 76.1771C65.0198 75.8013 63.2843 74.8737 61.9222 73.5116C60.5601 72.1495 59.6325 70.4141 59.2567 68.5248C58.8809 66.6355 59.0738 64.6772 59.811 62.8975C60.5481 61.1179 61.7965 59.5967 63.3981 58.5265C64.9998 57.4563 66.8828 56.8851 68.8092 56.8851C71.3922 56.8851 73.8695 57.9113 75.6961 59.7378C77.5226 61.5643 78.5487 64.0416 78.5487 66.6247Z" fill="#1ABCFE"/>
</g>
<path d="M49.3299 86.7254C51.913 86.7254 54.3903 85.6993 56.2168 83.8728C58.0433 82.0462 59.0695 79.5689 59.0695 76.9858V67.2463H49.3299C46.7468 67.2463 44.2695 68.2724 42.443 70.0989C40.6165 71.9255 39.5903 74.4028 39.5903 76.9858C39.5903 79.5689 40.6165 82.0462 42.443 83.8728C44.2695 85.6993 46.7468 86.7254 49.3299 86.7254Z" fill="#0ACF83"/>
<path d="M39.5903 57.5069C39.5903 54.9238 40.6165 52.4465 42.443 50.62C44.2695 48.7934 46.7468 47.7673 49.3299 47.7673H59.0695V67.2464H49.3299C46.7468 67.2464 44.2695 66.2203 42.443 64.3938C40.6165 62.5673 39.5903 60.09 39.5903 57.5069V57.5069Z" fill="#A259FF"/>
<path d="M39.5913 38.0271C39.5913 35.444 40.6174 32.9667 42.444 31.1402C44.2705 29.3136 46.7478 28.2875 49.3309 28.2875H59.0704V47.7666H49.3309C46.7478 47.7666 44.2705 46.7405 42.444 44.914C40.6174 43.0875 39.5913 40.6102 39.5913 38.0271V38.0271Z" fill="#F24E1E"/>
<path d="M59.0693 28.2878H68.8089C71.392 28.2878 73.8693 29.3139 75.6958 31.1405C77.5223 32.967 78.5485 35.4443 78.5485 38.0274C78.5485 40.6105 77.5223 43.0878 75.6958 44.9143C73.8693 46.7408 71.392 47.7669 68.8089 47.7669H59.0693V28.2878Z" fill="#FF7262"/>
<path d="M78.5485 57.5069C78.5485 59.4332 77.9773 61.3162 76.9071 62.9179C75.8369 64.5195 74.3158 65.7679 72.5361 66.5051C70.7564 67.2422 68.7981 67.4351 66.9088 67.0593C65.0195 66.6835 63.2841 65.7559 61.922 64.3938C60.5599 63.0317 59.6323 61.2963 59.2565 59.407C58.8807 57.5177 59.0736 55.5594 59.8107 53.7797C60.5479 52 61.7962 50.4789 63.3979 49.4087C64.9996 48.3385 66.8826 47.7673 68.8089 47.7673C71.392 47.7673 73.8693 48.7934 75.6958 50.62C77.5223 52.4465 78.5485 54.9238 78.5485 57.5069Z" fill="#1ABCFE"/>
<defs>
<filter id="filter0_d_6_772" x="0.520501" y="0.317498" width="143.402" height="143.402" filterUnits="userSpaceOnUse" color-interpolation-filters="sRGB">
<feFlood flood-opacity="0" result="BackgroundImageFix"/>
<feColorMatrix in="SourceAlpha" type="matrix" values="0 0 0 0 0 0 0 0 0 0 0 0 0 0 0 0 0 0 127 0" result="hardAlpha"/>
<feOffset dx="13.3191" dy="13.3191"/>
<feGaussianBlur stdDeviation="11.0993"/>
<feColorMatrix type="matrix" values="0 0 0 0 0.827451 0 0 0 0 0.819608 0 0 0 0 0.847059 0 0 0 0.25 0"/>
<feBlend mode="normal" in2="BackgroundImageFix" result="effect1_dropShadow_6_772"/>
<feBlend mode="normal" in="SourceGraphic" in2="effect1_dropShadow_6_772" result="shape"/>
</filter>
<filter id="filter1_f_6_772" x="17.3921" y="15.2069" width="83.3551" height="102.835" filterUnits="userSpaceOnUse" color-interpolation-filters="sRGB">
<feFlood flood-opacity="0" result="BackgroundImageFix"/>
<feBlend mode="normal" in="SourceGraphic" in2="BackgroundImageFix" result="shape"/>
<feGaussianBlur stdDeviation="11.0993" result="effect1_foregroundBlur_6_772"/>
</filter>
</defs>
</svg>
